<svg height="478pt" viewBox="0 -54 478.64247 478" width="478pt" xmlns="http://www.w3.org/2000/svg"><path d="m134.640625 155.117188h16v32h-16zm0 0"/><path d="m134.640625 195.117188h16v32h-16zm0 0"/><path d="m134.640625 235.117188h16v32h-16zm0 0"/><path d="m134.640625 275.117188h16v32h-16zm0 0"/><path d="m134.640625 315.117188h16v32h-16zm0 0"/><path d="m374.640625 155.117188h16v32h-16zm0 0"/><path d="m374.640625 195.117188h16v32h-16zm0 0"/><path d="m374.640625 235.117188h16v32h-16zm0 0"/><path d="m374.640625 275.117188h16v32h-16zm0 0"/><path d="m374.640625 315.117188h16v32h-16zm0 0"/><path d="m470.640625 219.117188c4.421875 0 8-3.582032 8-8v-72c0-4.417969-3.578125-8-8-8h-53.964844c-6.960937-7.449219-9.894531-17.796876-7.878906-27.789063s8.734375-18.398437 18.039063-22.5625c4.003906-1.875 5.730468-6.636719 3.855468-10.640625l-30.449218-65.191406c-1.867188-4-6.621094-5.726563-10.625-3.863282l-278.976563 130.046876h-56c-4.417969 0-8 3.582031-8 8v18.175781l-42.007813 19.527343c-1.925781.894532-3.417968 2.515626-4.144531 4.511719-.730469 1.992188-.636719 4.195313.257813 6.121094l30.398437 65.28125c.898438 1.925781 2.523438 3.417969 4.523438 4.144531 1.996093.726563 4.203125.628906 6.125-.273437 14.289062-6.554688 31.222656-1.761719 39.953125 11.3125-5.789063 9.421875-16.046875 15.171875-27.105469 15.199219-4.417969 0-8 3.582031-8 8v72c0 4.417968 3.582031 8 8 8h416c4.421875 0 8-3.582032 8-8v-72c0-4.417969-3.578125-8-8-8-17.671875 0-32-14.328126-32-32 0-17.671876 14.328125-32 32-32zm-81.542969-200.167969 24 51.3125c-19.269531 13.324219-26.132812 38.59375-16.253906 59.839843.167969.359376.421875.664063.597656 1.015626h-70.742187l-21.65625-46.503907c-1.871094-4.003906-6.628907-5.734375-10.632813-3.863281l-108.023437 50.367188h-37.894531zm-80.054687 112.167969h-84.800781l69.65625-32.488282zm-266.480469 108.214843-23.921875-51.414062 28-12.976563v36.175782c0 4.417968 3.582031 8 8 8 16.953125.042968 30.921875 13.320312 31.824219 30.246093-12.085938-10.371093-28.507813-14.125-43.902344-10.03125zm420.078125 59.121094v56.664063h-400v-56.664063c23.117187-3.886719 40.046875-23.898437 40.046875-47.335937 0-23.441407-16.929688-43.449219-40.046875-47.335938v-56.664062h400v56.664062c-23.113281 3.886719-40.042969 23.894531-40.042969 47.335938 0 23.4375 16.929688 43.449218 40.042969 47.335937zm0 0"/><path d="m350.640625 163.117188h-176c-4.417969 0-8 3.582031-8 8v160c0 4.417968 3.582031 8 8 8h176c4.421875 0 8-3.582032 8-8v-160c0-4.417969-3.578125-8-8-8zm-8 160h-160v-144h160zm0 0"/><path d="m312.757812 63.371094 14.5-6.761719 13.523438 29-14.5 6.761719zm0 0"/><path d="m329.660156 99.621094 14.503906-6.757813 13.515626 29.003907-14.5 6.761718zm0 0"/></svg>